<svg xmlns="http://www.w3.org/2000/svg" xmlns:xlink="http://www.w3.org/1999/xlink" viewBox="0 0 264 280"><defs><path id="a" d="M124 144.61V163h4a72 72 0 0 1 72 72v9H0v-9a72 72 0 0 1 72-72h4v-18.39a56.04 56.04 0 0 1-31.7-44.73A12 12 0 0 1 34 88V74a12 12 0 0 1 10-11.83V56a56 56 0 1 1 112 0v6.17A12 12 0 0 1 166 74v14a12 12 0 0 1-10.3 11.88 56.04 56.04 0 0 1-31.7 44.73z"/></defs><g mask="url(#mask-4)" fill="none" fill-rule="evenodd"><g transform="translate(32 36)"><mask id="b" fill="#fff"><use xlink:href="#a"/></mask><use fill="#D0C6AC" xlink:href="#a"/><g fill="#FFDBB4" mask="url(#b)"><path d="M-32 0h264v244H-32z"/></g><path fill="#000" fill-opacity=".1" d="M156 79v23a56 56 0 1 1-112 0V79v15a56 56 0 1 0 112 0V79z" mask="url(#b)"/></g><g transform="translate(0 170)"><defs><path id="c" d="M108 13.07c-17.92 2-31.72 7.48-32 21.57A72.02 72.02 0 0 0 32 101v9h200v-9a72.02 72.02 0 0 0-44-66.36c-.28-14.09-14.08-19.56-32-21.57V32a24 24 0 1 1-48 0V13.07z"/></defs><mask id="d" fill="#fff"><use xlink:href="#c"/></mask><use fill="#B7C1DB" xlink:href="#c"/><g fill="#929598" mask="url(#d)"><path d="M0 0h264v110H0z"/></g><path fill="#F4F4F4" d="M102 61.74V110h-7V58.15a64.54 64.54 0 0 0 7 3.59zm67-3.59V98.5a3.5 3.5 0 1 1-7 0V61.74a64.54 64.54 0 0 0 7-3.59z" mask="url(#d)"/><path fill="#000" fill-opacity=".16" d="M90.96 12.72C75.91 15.57 65.5 21.24 65.5 32.31 65.5 52.02 98.54 68 132 68s66.5-15.98 66.5-35.7c0-11.06-10.4-16.73-25.46-19.58 9.08 3.35 14.96 8.99 14.96 18.36C188 51.47 160.18 68 132 68S76 51.47 76 31.08c0-9.37 5.88-15 14.96-18.36z" mask="url(#d)"/></g><g fill="#000"><g transform="translate(78 134)"><defs><path id="e" d="M35.12 15.13a19 19 0 0 0 37.77-.09c.08-.77-.77-2.04-1.85-2.04H37.1c-1.1 0-2.1 1.18-1.98 2.13z"/></defs><mask id="f" fill="#fff"><use xlink:href="#e"/></mask><use fill-opacity=".7" xlink:href="#e"/><rect width="31" height="16" x="39" y="2" fill="#FFF" mask="url(#f)" rx="5"/><g fill="#FF4F6D" mask="url(#f)"><g transform="translate(38 24)"><circle cx="11" cy="11" r="11"/><circle cx="21" cy="11" r="11"/></g></g></g><path fill-opacity=".16" d="M120 130c0 4.42 5.37 8 12 8s12-3.58 12-8"/><g fill-opacity=".6" transform="translate(76 90)"><circle cx="30" cy="22" r="6"/><circle cx="82" cy="22" r="6"/></g><path d="M91.63 99.16c3.92-5.51 14.65-8.6 23.9-6.33a2 2 0 0 0 .95-3.88c-10.74-2.64-23.17.94-28.11 7.9a2 2 0 0 0 3.26 2.3zm80.74 0c-3.91-5.51-14.65-8.6-23.9-6.33a2 2 0 0 1-.95-3.88c10.74-2.64 23.17.94 28.11 7.9a2 2 0 0 1-3.26 2.3z" fill-opacity=".6" fill-rule="nonzero"/></g><defs><path id="g" d="M0 0h264v280H0z"/><path id="i" d="M180.15 39.92c-2.76-2.82-5.96-5.21-9.08-7.61-.69-.53-1.39-1.05-2.06-1.6-.15-.12-1.72-1.24-1.9-1.66-.46-.99-.2-.22-.13-1.4.08-1.5 3.13-5.73.85-6.7-1-.43-2.79.7-3.75 1.08a59.49 59.49 0 0 1-5.73 1.9c.93-1.85 2.7-5.57-.63-4.58-2.6.78-5.03 2.77-7.64 3.7.86-1.4 4.32-5.8 1.2-6.05-.98-.07-3.8 1.75-4.86 2.14a55.8 55.8 0 0 1-9.63 2.51c-11.2 2.02-24.3 1.45-34.65 6.54-8 3.93-15.88 10.03-20.5 17.8-4.44 7.48-6.1 15.67-7.03 24.25-.69 6.3-.74 12.8-.42 19.12.1 2.07.34 11.61 3.34 8.72 1.5-1.44 1.49-7.25 1.87-9.22.75-3.91 1.47-7.85 2.72-11.64 2.2-6.68 4.81-13.79 10.3-18.39 3.53-2.95 6.01-6.94 9.39-9.92 1.51-1.34.36-1.2 2.8-1.02 1.63.12 3.28.16 4.92.2 3.8.1 7.6.08 11.4.1 7.64.02 15.25.13 22.89-.27 3.4-.18 6.8-.28 10.18-.6 1.9-.17 5.25-1.38 6.8-.45 1.43.84 2.91 3.61 3.94 4.75 2.41 2.67 5.3 4.72 8.12 6.92 5.9 4.57 8.87 10.33 10.66 17.48 1.79 7.13 1.29 13.75 3.5 20.76.38 1.24 1.4 3.36 2.68 1.46.23-.36.17-2.3.17-3.42 0-4.52 1.14-7.91 1.13-12.46-.06-13.83-.5-31.87-10.85-42.44z"/></defs><mask id="h" fill="#fff"><use xlink:href="#g"/></mask><g mask="url(#h)"><g transform="translate(-1)"><mask id="j" fill="#fff"><use xlink:href="#i"/></mask><use fill="#1F3140" xlink:href="#i"/><g fill="#D6B370" mask="url(#j)"><path d="M0 0h264v280H0z"/></g></g></g></g></svg>