<svg xmlns="http://www.w3.org/2000/svg" viewBox="0 0 512 512"><path d="M171.3 408.4c0 2-2.4 3.7-5.4 3.7-3.4.3-5.8-1.4-5.8-3.7 0-2.1 2.4-3.8 5.4-3.8 3-.3 5.8 1.4 5.8 3.8zm-32.2-4.7c-.7 2 1.4 4.5 4.5 5 2.7 1.1 5.8 0 6.4-2 .6-2-1.4-4.4-4.5-5.4-2.6-.7-5.6.3-6.4 2.4zm45.7-1.7c-3 .7-5 2.6-4.8 5 .3 2 3 3.4 6.1 2.7 3-.7 5-2.7 4.8-4.7-.3-2-3.1-3.4-6.1-3zM252.7 6.4C109.5 6.4 0 115.1 0 258.3c0 114.4 72 212.4 175 246.9 13.2 2.4 17.8-5.8 17.8-12.5 0-6.4-.3-41.7-.3-63.4 0 0-72.2 15.5-87.4-30.7 0 0-11.8-30-28.7-37.8 0 0-23.7-16.2 1.6-16 0 0 25.7 2.1 39.9 26.7 22.6 39.9 60.5 28.4 75.2 21.6 2.4-16.5 9.1-28 16.6-34.8-57.8-6.4-116-14.8-116-114 0-28.5 7.9-42.7 24.4-60.9a97.5 97.5 0 012.7-70c21.5-6.8 71.2 27.8 71.2 27.8a242.5 242.5 0 01129.7 0s49.6-34.7 71.2-27.9a97.5 97.5 0 012.7 70.1c16.5 18.3 26.6 32.5 26.6 60.8 0 99.6-60.8 107.6-118.5 114 9.5 8.2 17.5 23.7 17.5 48 0 34.8-.3 77.8-.3 86.3 0 6.7 4.8 14.9 17.9 12.5C442 470.7 512 372.7 512 258.3 512 115 395.9 6.4 252.7 6.4zm-152.4 356c-1.3 1-1 3.4.8 5.4 1.6 1.6 4 2.4 5.3 1 1.4-1 1-3.4-.7-5.3-1.6-1.7-4-2.4-5.4-1zm-11.1-8.3c-.7 1.3.3 3 2.4 4 1.6 1 3.7.7 4.4-.7.7-1.4-.3-3-2.4-4-2-.7-3.7-.4-4.4.7zm33.4 36.7c-1.6 1.4-1 4.4 1.4 6.4 2.3 2.4 5.3 2.7 6.7 1 1.3-1.3.7-4.4-1.4-6.4-2.2-2.3-5.3-2.6-6.7-1zM111 375.6c-1.7 1-1.7 3.8 0 6.1 1.6 2.4 4.4 3.4 5.7 2.4 1.7-1.3 1.7-4 0-6.4-1.4-2.4-4-3.4-5.7-2z"/></svg>