<svg xmlns="http://www.w3.org/2000/svg" viewBox="0 0 512 512"><path d="M256 6C114.6 6 0 118 0 256s114.6 250 256 250 256-112 256-250S397.4 6 256 6zm-76.33 150.557c54.548 0 98.764 44.525 98.764 99.445 0 54.92-44.22 99.441-98.764 99.441s-98.768-44.531-98.768-99.441c0-54.91 44.22-99.445 98.768-99.445zm157.725 5.826c27.273 0 49.382 41.91 49.382 93.619h.004c0 51.695-22.11 93.62-49.385 93.62-27.273 0-49.382-41.925-49.382-93.62 0-51.695 22.107-93.62 49.38-93.62zm76.334 9.75c9.59 0 17.369 37.55 17.369 83.869 0 46.306-7.776 83.867-17.37 83.867-9.593 0-17.365-37.55-17.365-83.867 0-46.317 7.775-83.87 17.366-83.87z"/></svg>